<svg width="15.967285" height="15.967346" viewBox="0 0 15.9673 15.9673" fill="none" xmlns="http://www.w3.org/2000/svg" xmlns:xlink="http://www.w3.org/1999/xlink">
	<desc>
			Created with Pixso.
	</desc>
	<defs/>
	<path id="Vector" d="M7.95 1.45C9.24 1.45 10.5 1.83 11.58 2.55C12.65 3.27 13.49 4.29 13.98 5.48C14.48 6.67 14.6 7.99 14.35 9.25C14.1 10.52 13.48 11.68 12.56 12.6C11.65 13.51 10.49 14.13 9.22 14.39C7.95 14.64 6.64 14.51 5.45 14.01C4.25 13.52 3.23 12.68 2.51 11.61C1.8 10.53 1.41 9.27 1.41 7.98C1.42 6.25 2.11 4.59 3.33 3.37C4.56 2.14 6.22 1.45 7.95 1.45ZM7.95 6.1e-5C6.37 0 4.83 0.48 3.52 1.36C2.21 2.24 1.19 3.49 0.59 4.95C-0.01 6.41 -0.16 8.01 0.15 9.56C0.46 11.1 1.23 12.52 2.34 13.64C3.46 14.75 4.89 15.51 6.43 15.81C7.98 16.12 9.58 15.96 11.04 15.35C12.5 14.75 13.74 13.72 14.62 12.41C15.5 11.1 15.96 9.56 15.96 7.98C15.96 6.93 15.75 5.89 15.35 4.92C14.95 3.95 14.36 3.06 13.61 2.32C12.87 1.58 11.98 0.99 11.01 0.59C10.04 0.19 9 -0.01 7.95 6.1e-5Z" fill="#F2F2F2" fill-opacity="1.000000" fill-rule="nonzero"/>
	<path id="Vector" d="M11.67 7.38L8.46 7.38L8.46 4.16L7.38 4.16L7.38 7.38L4.16 7.38L4.16 8.46L7.38 8.46L7.38 11.67L8.46 11.67L8.46 8.46L11.67 8.46L11.67 7.38Z" fill="#F2F2F2" fill-opacity="1.000000" fill-rule="nonzero"/>
</svg>
