<svg width="21.988770" height="36.007050" viewBox="0 0 21.9888 36.007" fill="none" xmlns="http://www.w3.org/2000/svg" xmlns:xlink="http://www.w3.org/1999/xlink">
	<desc>
			Created with Pixso.
	</desc>
	<defs/>
	<path id="Vector" d="M10.99 2.93C14.12 6.9 15.79 11.79 15.73 16.81L15.73 18.01L16.76 18.64C18.09 19.44 19.09 20.69 19.56 22.16C19.14 21.86 18.71 21.58 18.26 21.32L15.51 19.78L15.01 22.9C14.97 23.17 14.91 23.44 14.84 23.71L7.13 23.71C7.02 23.36 6.93 23.01 6.84 22.64L6.22 19.82L3.68 21.23C3.26 21.47 2.85 21.73 2.46 22.01C2.94 20.56 3.91 19.32 5.22 18.49L6.2 17.86L6.2 16.75C6.21 11.75 7.9 6.89 11 2.93L10.99 2.93ZM11 0C10.84 0 10.69 0.05 10.56 0.16L10.5 0.21C6.37 4.76 4.08 10.64 4.05 16.74C2.3 17.86 1.01 19.55 0.39 21.51C-0.23 23.48 -0.12 25.6 0.69 27.49C1.54 25.64 2.96 24.1 4.76 23.09C4.94 23.86 5.18 24.61 5.47 25.34C5.51 25.48 5.59 25.61 5.71 25.7C5.83 25.78 5.97 25.83 6.12 25.84L16.06 25.84C16.26 25.84 16.46 25.64 16.56 25.35C16.85 24.65 17.05 23.93 17.16 23.18C18.96 24.19 20.38 25.73 21.23 27.58C22.09 25.7 22.22 23.57 21.6 21.59C20.99 19.62 19.66 17.93 17.88 16.84C17.95 10.7 15.67 4.77 11.49 0.21C11.43 0.15 11.35 0.09 11.27 0.05C11.18 0.01 11.09 0 10.99 0L11 0Z" fill="#4EA8DE" fill-opacity="1.000000" fill-rule="nonzero"/>
	<path id="Vector" d="M10.99 16.15C10.44 16.15 9.91 15.99 9.45 15.69C8.99 15.39 8.63 14.97 8.42 14.47C8.21 13.97 8.16 13.42 8.26 12.88C8.37 12.35 8.63 11.86 9.02 11.48C9.4 11.1 9.9 10.83 10.44 10.72C10.98 10.62 11.54 10.67 12.05 10.87C12.56 11.08 12.99 11.42 13.3 11.87C13.61 12.32 13.78 12.85 13.78 13.39C13.79 13.74 13.73 14.09 13.6 14.42C13.47 14.75 13.28 15.05 13.03 15.3C12.79 15.55 12.49 15.76 12.16 15.9C11.84 16.04 11.49 16.12 11.13 16.13C11.09 16.13 11.04 16.13 10.99 16.13L10.99 16.15Z" fill="#4EA8DE" fill-opacity="1.000000" fill-rule="nonzero"/>
	<path id="Path 3417" d="M14.87 27.59C14.69 27.59 14.51 27.61 14.34 27.68C14.18 27.74 14.02 27.84 13.89 27.96C13.76 28.08 13.66 28.23 13.59 28.39C13.52 28.55 13.48 28.73 13.48 28.9L13.48 33.06C13.48 33.42 13.63 33.77 13.89 34.03C14.15 34.29 14.5 34.43 14.87 34.43C15.24 34.43 15.59 34.29 15.85 34.03C16.11 33.77 16.26 33.42 16.26 33.06L16.26 28.96C16.26 28.78 16.23 28.61 16.17 28.44C16.11 28.28 16.01 28.13 15.89 28C15.76 27.87 15.62 27.77 15.45 27.7C15.29 27.63 15.11 27.59 14.93 27.59L14.87 27.59Z" fill="#5E60CE" fill-opacity="1.000000" fill-rule="nonzero"/>
	<path id="Path 3418" d="M7.13 27.59C6.95 27.58 6.77 27.61 6.6 27.67C6.43 27.73 6.27 27.83 6.14 27.95C6 28.07 5.9 28.22 5.82 28.38C5.75 28.55 5.71 28.72 5.7 28.9L5.7 33.06C5.7 33.42 5.85 33.77 6.11 34.03C6.37 34.29 6.72 34.43 7.09 34.43C7.46 34.43 7.81 34.29 8.07 34.03C8.33 33.77 8.48 33.42 8.48 33.06L8.48 28.96C8.49 28.78 8.46 28.61 8.39 28.44C8.33 28.28 8.23 28.13 8.11 28C7.99 27.87 7.84 27.77 7.67 27.7C7.51 27.63 7.33 27.59 7.16 27.59L7.13 27.59Z" fill="#5E60CE" fill-opacity="1.000000" fill-rule="nonzero"/>
	<path id="Path 3419" d="M10.89 27.59C10.72 27.59 10.54 27.62 10.37 27.68C10.2 27.75 10.05 27.84 9.92 27.96C9.79 28.08 9.69 28.23 9.62 28.39C9.55 28.55 9.51 28.73 9.51 28.9L9.51 34.63C9.51 35 9.65 35.34 9.91 35.6C10.17 35.86 10.53 36 10.89 36C11.26 36 11.62 35.86 11.88 35.6C12.14 35.34 12.28 35 12.28 34.63L12.28 28.99C12.29 28.82 12.26 28.64 12.2 28.48C12.13 28.31 12.04 28.16 11.91 28.04C11.79 27.91 11.64 27.81 11.48 27.74C11.31 27.67 11.14 27.63 10.96 27.63L10.89 27.59Z" fill="#5E60CE" fill-opacity="1.000000" fill-rule="nonzero"/>
</svg>
